<svg width="126" height="31" viewBox="0 0 126 31" fill="none" xmlns="http://www.w3.org/2000/svg">
<path d="M5.06616 4.81185C4.46095 4.81185 4.00217 4.63688 3.6898 4.28692C3.37744 3.93697 3.22126 3.48981 3.22126 2.94544C3.22126 2.3233 3.40672 1.80809 3.77766 1.39981C4.16811 0.991534 4.69523 0.787394 5.359 0.787394C6.02278 0.787394 6.51085 0.962371 6.82321 1.31232C7.13557 1.66228 7.29176 2.10944 7.29176 2.65381C7.29176 3.31483 7.09653 3.83976 6.70607 4.2286C6.33514 4.61744 5.79826 4.81185 5.09544 4.81185H5.06616ZM1.55206 7.9031L6.09111 7.34901H6.14967L6.79393 7.87394V23.7093C6.79393 25.323 6.55965 26.6742 6.09111 27.7629C5.62256 28.8711 4.98807 29.6877 4.18764 30.2126C3.3872 30.7375 2.48915 31 1.49349 31C0.732104 31 0.28308 30.9611 0.146421 30.8833L0 29.5127C0.156182 29.5321 0.380694 29.5127 0.673536 29.4544C0.9859 29.396 1.29826 29.3086 1.61063 29.1919C2.41106 28.9197 2.96746 28.2587 3.27983 27.2088C3.61171 26.1784 3.77766 24.7883 3.77766 23.0386V10.0611L1.55206 9.53622V7.9031Z" fill="white"/>
<path d="M24.2585 24.1759C23.7119 24.1759 23.3019 24.069 23.0286 23.8551C22.7748 23.6413 22.6479 23.2913 22.6479 22.8053V21.8137C22.0036 22.4553 21.1934 23.0191 20.2173 23.5052C19.2607 23.9912 18.2943 24.2342 17.3182 24.2342C15.5025 24.2342 14.214 23.7482 13.4526 22.7761C12.6913 21.804 12.3106 20.2001 12.3106 17.9643V9.50706L10.6706 9.04045V7.75729L14.7704 7.37817H14.7997L15.3561 7.72813V17.7309C15.3561 18.8586 15.4342 19.7432 15.5904 20.3848C15.7661 21.0069 16.0589 21.4735 16.4689 21.7846C16.8984 22.0762 17.5134 22.222 18.3138 22.222C19.0947 22.222 19.8268 22.0568 20.5101 21.7262C21.1934 21.3957 21.7889 21.0069 22.2965 20.5597V9.50706L20.188 9.04045V7.75729L24.6392 7.37817H24.6685L25.342 7.72813V22.4262H27.0991L27.0698 23.7385C26.5231 23.8746 26.0448 23.9815 25.6349 24.0593C25.2444 24.137 24.7856 24.1759 24.2585 24.1759Z" fill="white"/>
<path d="M32.1604 21.5804C32.3556 21.8721 32.7656 22.1345 33.3904 22.3678C34.0346 22.6011 34.7081 22.7178 35.411 22.7178C36.5238 22.7178 37.3437 22.5039 37.8708 22.0762C38.3979 21.6485 38.6615 21.0555 38.6615 20.2973C38.6615 19.7723 38.4956 19.3155 38.1637 18.9266C37.8318 18.5378 37.3632 18.1976 36.758 17.9059C36.1723 17.5949 35.3231 17.2255 34.2103 16.7977C32.7071 16.2339 31.604 15.5632 30.9012 14.7855C30.2179 13.9884 29.8763 12.9483 29.8763 11.6651C29.8763 10.8097 30.1301 10.0611 30.6376 9.41957C31.1648 8.77799 31.8773 8.28222 32.7754 7.93227C33.693 7.56287 34.7081 7.37817 35.8209 7.37817C36.719 7.37817 37.4999 7.44622 38.1637 7.58231C38.847 7.71841 39.3936 7.8545 39.8036 7.99059C40.2136 8.12669 40.4869 8.21417 40.6235 8.25306V11.8692H38.8372L38.2515 9.71119C38.1344 9.47789 37.822 9.28347 37.3144 9.12794C36.8068 8.95296 36.2407 8.86547 35.616 8.86547C34.7374 8.86547 34.0248 9.05989 33.4782 9.44873C32.9511 9.83757 32.6875 10.3625 32.6875 11.0235C32.6875 11.6068 32.8242 12.0928 33.0975 12.4817C33.3904 12.8511 33.7515 13.1524 34.181 13.3857C34.6105 13.619 35.1962 13.8912 35.9381 14.2023L36.5238 14.4356C37.617 14.8633 38.5053 15.2716 39.1886 15.6604C39.8719 16.0492 40.4381 16.5644 40.8871 17.206C41.3556 17.8282 41.5899 18.5961 41.5899 19.5099C41.5899 20.9486 41.0238 22.0956 39.8914 22.9511C38.7786 23.8065 37.2461 24.2342 35.2938 24.2342C34.3372 24.2342 33.3318 24.1079 32.2776 23.8551C31.2428 23.5829 30.3936 23.3108 29.7298 23.0386V19.3057H31.6333L32.1604 21.5804Z" fill="white"/>
<path d="M49.2297 24.2051C48.1169 24.2051 47.2871 23.9523 46.7405 23.4468C46.1939 22.9414 45.9205 22.0762 45.9205 20.8514V9.65287H43.8121V8.34055C43.9097 8.3211 44.183 8.25306 44.632 8.13641C45.0811 8.01976 45.3837 7.91282 45.5398 7.81562C45.8522 7.64064 46.0962 7.29069 46.2719 6.76576C46.4281 6.39636 46.6136 5.80339 46.8284 4.98683C47.0431 4.17027 47.17 3.68423 47.209 3.52869H48.9368L48.9954 7.72813H53.8858V9.65287H48.9954V18.6058C48.9954 19.714 49.0247 20.4917 49.0832 20.9389C49.1613 21.386 49.3077 21.6776 49.5225 21.8137C49.7568 21.9498 50.1472 22.0179 50.6939 22.0179C51.221 22.0179 51.7969 21.9498 52.4216 21.8137C53.0659 21.6776 53.5637 21.5318 53.9151 21.3763L54.3544 22.6886C53.8858 23.0386 53.1244 23.3788 52.0702 23.7093C51.0355 24.0398 50.0887 24.2051 49.2297 24.2051Z" fill="white"/>
<path d="M62.2677 24.2342C61.0573 24.2342 59.9738 23.9523 59.0172 23.3885C58.0606 22.8053 57.2992 21.9109 56.733 20.7055C56.1669 19.5002 55.8838 17.9934 55.8838 16.1853C55.8838 14.5522 56.2157 13.0649 56.8795 11.7234C57.5628 10.3625 58.5584 9.28347 59.8664 8.48636C61.1745 7.68924 62.746 7.29069 64.5812 7.29069C65.3231 7.29069 66.0259 7.36845 66.6897 7.52399V2.59549L63.8198 2.18721V0.583256L69.8523 0H69.9402L70.7601 0.612418V22.1345H72.3415V23.7968C70.9359 24.0884 69.7743 24.2342 68.8567 24.2342C68.2319 24.2342 67.7829 24.1273 67.5096 23.9135C67.2558 23.719 67.1289 23.3205 67.1289 22.7178V21.9012C66.6213 22.5817 65.9283 23.1455 65.0497 23.5927C64.1712 24.0204 63.2439 24.2342 62.2677 24.2342ZM63.7905 21.8137C64.4348 21.8137 65.0009 21.6874 65.489 21.4346C65.9966 21.1624 66.3968 20.8416 66.6897 20.4722V9.85701C66.553 9.66259 66.2601 9.49733 65.8111 9.36124C65.3816 9.22515 64.9131 9.1571 64.4055 9.1571C63.156 9.1571 62.1506 9.70147 61.3892 10.7902C60.6474 11.8595 60.2764 13.5801 60.2764 15.952C60.2764 17.9351 60.5985 19.4127 61.2428 20.3848C61.887 21.3374 62.7363 21.8137 63.7905 21.8137Z" fill="white"/>
<path d="M74.1564 19.3641C74.1564 17.5949 75.0447 16.2631 76.8213 15.3688C78.6174 14.4744 80.9308 14.0176 83.7616 13.9981V13.3274C83.7616 12.5303 83.6738 11.9081 83.4981 11.461C83.3419 11.0138 83.0393 10.6833 82.5903 10.4694C82.1608 10.2361 81.5263 10.1195 80.6868 10.1195C79.7302 10.1195 78.8712 10.2458 78.1098 10.4986C77.3484 10.7319 76.5577 11.043 75.7378 11.4318L74.83 9.56538C75.1228 9.31264 75.6109 9.01129 76.2942 8.66134C76.997 8.31138 77.8267 8.01003 78.7833 7.75729C79.7399 7.48511 80.7258 7.34901 81.741 7.34901C83.2443 7.34901 84.4156 7.54343 85.2551 7.93227C86.1141 8.3211 86.7291 8.94324 87.1 9.79868C87.471 10.6541 87.6564 11.8012 87.6564 13.2399V22.1637H89.2378V23.7968C88.8473 23.894 88.2909 23.9912 87.5686 24.0884C86.8462 24.1856 86.2117 24.2342 85.6651 24.2342C85.0013 24.2342 84.5523 24.137 84.318 23.9426C84.1033 23.7482 83.9959 23.3496 83.9959 22.7469V21.9595C83.4688 22.5428 82.7855 23.0677 81.946 23.5343C81.1065 24.0009 80.1597 24.2342 79.1055 24.2342C78.2074 24.2342 77.3777 24.0495 76.6163 23.6801C75.8744 23.2913 75.279 22.7372 74.83 22.0179C74.3809 21.2791 74.1564 20.3945 74.1564 19.3641ZM80.9796 21.8137C81.3896 21.8137 81.8582 21.6971 82.3853 21.4638C82.9124 21.211 83.3712 20.9097 83.7616 20.5597V15.777C82.0046 15.777 80.6868 16.0784 79.8083 16.6811C78.9493 17.2643 78.5198 18.0226 78.5198 18.9558C78.5198 19.889 78.7345 20.5986 79.164 21.0847C79.613 21.5707 80.2182 21.8137 80.9796 21.8137Z" fill="white"/>
<path d="M95.985 24.1759C94.7551 24.1759 93.8473 23.894 93.2616 23.3302C92.6759 22.7664 92.3831 21.8721 92.3831 20.6472V9.9445H90.4796V8.42803C90.6358 8.36971 90.9189 8.2725 91.3288 8.13641C91.7388 7.98087 92.0512 7.8545 92.2659 7.75729C92.5978 7.50455 92.8809 7.06711 93.1152 6.44497C93.2909 6.03669 93.613 5.02571 94.0816 3.41204H96.4243L96.5414 7.69896H101.022V9.9445H96.5707V18.1392C96.5707 19.228 96.6 19.9959 96.6586 20.4431C96.7171 20.8902 96.844 21.1819 97.0393 21.318C97.2345 21.4346 97.5761 21.4929 98.0642 21.4929C98.5523 21.4929 99.0599 21.4443 99.587 21.3471C100.114 21.2305 100.553 21.0944 100.905 20.9389L101.461 22.572C100.915 22.9802 100.114 23.3496 99.0599 23.6801C98.0056 24.0107 96.9807 24.1759 95.985 24.1759Z" fill="white"/>
<path d="M102.697 19.3641C102.697 17.5949 103.585 16.2631 105.362 15.3688C107.158 14.4744 109.471 14.0176 112.302 13.9981V13.3274C112.302 12.5303 112.214 11.9081 112.039 11.461C111.883 11.0138 111.58 10.6833 111.131 10.4694C110.701 10.2361 110.067 10.1195 109.227 10.1195C108.271 10.1195 107.412 10.2458 106.65 10.4986C105.889 10.7319 105.098 11.043 104.278 11.4318L103.371 9.56538C103.663 9.31264 104.151 9.01129 104.835 8.66134C105.538 8.31138 106.367 8.01003 107.324 7.75729C108.281 7.48511 109.266 7.34901 110.282 7.34901C111.785 7.34901 112.956 7.54343 113.796 7.93227C114.655 8.3211 115.27 8.94324 115.641 9.79868C116.012 10.6541 116.197 11.8012 116.197 13.2399V22.1637H117.778V23.7968C117.388 23.894 116.832 23.9912 116.109 24.0884C115.387 24.1856 114.752 24.2342 114.206 24.2342C113.542 24.2342 113.093 24.137 112.859 23.9426C112.644 23.7482 112.537 23.3496 112.537 22.7469V21.9595C112.009 22.5428 111.326 23.0677 110.487 23.5343C109.647 24.0009 108.7 24.2342 107.646 24.2342C106.748 24.2342 105.918 24.0495 105.157 23.6801C104.415 23.2913 103.82 22.7372 103.371 22.0179C102.922 21.2791 102.697 20.3945 102.697 19.3641ZM109.52 21.8137C109.93 21.8137 110.399 21.6971 110.926 21.4638C111.453 21.211 111.912 20.9097 112.302 20.5597V15.777C110.545 15.777 109.227 16.0784 108.349 16.6811C107.49 17.2643 107.06 18.0226 107.06 18.9558C107.06 19.889 107.275 20.5986 107.705 21.0847C108.154 21.5707 108.759 21.8137 109.52 21.8137Z" fill="white"/>
<path d="M121.119 19.6606H126V23.9135H121.119V19.6606Z" fill="#8257E5"/>
</svg>
